<?xml version="1.0" encoding="UTF-8"?>
<svg version="1.1" xmlns="http://www.w3.org/2000/svg" height="99pt" xmlns:inkscape="http://www.inkscape.org/namespaces/inkscape" width="240pt" viewBox="0 0 240 99" xmlns:xlink="http://www.w3.org/1999/xlink">
 <defs/>
 <g id="Layer 1" inkscape:label="Layer 1" inkscape:groupmode="layer"/>
 <g id="background" inkscape:label="background" inkscape:groupmode="layer"/>
 <g id="Layer 1" inkscape:label="Layer 1" inkscape:groupmode="layer"/>
 <g id="Layer 2" inkscape:label="Layer 2" inkscape:groupmode="layer">
  <path transform="translate(91.8997, 7.45781)" d="M59.5536 54.1324 L28.0517 0 L24.9006 5.38226 C21.3802 11.6894 24.5979 19.023 29.2186 23.664 L59.5536 54.1326 L59.5536 54.1324 M13.3222 52.2604 L35.0543 43.8712 L2.61718 43.8712 L0.801325 47.017 C-0.29032 48.9087 -0.490956 52.0769 1.6382 53.39 C4.5254 55.1708 11.2287 52.9224 13.322 52.2604 L13.3222 52.2604 M14.8691 22.7192 L12.6228 26.774 C11.8186 28.2254 11.7658 29.6811 12.3077 31.2651 C13.5661 34.9425 17.6568 37.2443 21.4367 38.099 L43.3826 43.0615 L14.8689 22.7193 L14.8691 22.7192 " style="fill:#ffffff; fill-rule:nonzero;stroke:none;"/>
  <path transform="translate(79.5039, 69.9241)" d="M77.1428 7.44427 C76.4798 5.74903 75.8199 4.05227 75.1535 2.35838 L73.2023 7.44427 L77.1428 7.44427 M79.0709 11.7799 C78.8767 11.6249 78.6856 11.3575 78.5066 10.9058 L77.5785 8.55334 L72.7687 8.55334 L72.0535 10.4446 C71.94 10.7365 71.8588 10.9794 71.8063 11.1817 C71.7552 11.3779 71.7316 11.5346 71.7316 11.6586 L71.7316 11.72 L71.6759 11.7452 C71.5066 11.822 71.3227 11.8787 71.1471 11.9167 C70.9358 11.9629 70.7353 11.9834 70.5861 11.9834 C70.4682 11.9834 70.3586 11.9577 70.2791 11.8904 C70.207 11.8289 70.1629 11.7384 70.1629 11.6095 C70.1629 11.5282 70.1761 11.4262 70.2063 11.2983 C70.2354 11.1761 70.282 11.0249 70.3495 10.8388 L73.5339 2.76219 C73.6701 2.43095 73.811 2.04881 73.9478 1.62893 C74.072 1.24864 74.1925 0.838236 74.3016 0.41007 L74.3156 0.355427 L74.3708 0.341385 C74.5184 0.304508 74.7835 0.262383 75.1058 0.232105 C75.368 0.20774 75.6669 0.190657 75.9691 0.190657 L76.0273 0.190657 L76.0537 0.243267 C76.2282 0.592431 76.3976 0.967478 76.5612 1.34997 C76.7242 1.7311 76.8851 2.12763 77.0418 2.5152 L80.1438 10.3768 C80.2732 10.7092 80.3866 10.9679 80.5023 11.1655 C80.6136 11.3554 80.728 11.4898 80.8629 11.5798 L80.9922 11.666 L80.8565 11.7413 C80.7161 11.8193 80.5315 11.8765 80.3407 11.9152 C80.1083 11.9626 79.8638 11.9832 79.6781 11.9832 C79.4791 11.9832 79.2743 11.9418 79.0713 11.7799 L79.0709 11.7799 M64.3489 1.34895 L62.3796 1.34895 L62.3985 1.92413 C62.4048 2.15504 62.409 2.38308 62.409 2.59945 L62.409 6.10902 C62.6119 6.09887 62.824 6.09853 63.036 6.09853 L64.4147 6.09853 C65.0915 6.09853 65.6577 5.86018 66.0538 5.45028 C66.4528 5.037 66.6827 4.4466 66.6827 3.7481 C66.6827 3.03438 66.4457 2.43299 66.0358 2.01176 C65.6271 1.59222 65.0435 1.34879 64.3489 1.34879 L64.3489 1.34895 M60.8789 11.7635 C60.7539 11.6021 60.6764 11.3286 60.6764 10.8708 L60.6764 2.84559 C60.6764 2.43687 60.6681 2.08145 60.6437 1.71301 C60.6196 1.34405 60.5784 0.960034 60.5133 0.495327 L60.5013 0.411251 L60.5844 0.390276 C60.7243 0.355427 60.9542 0.320409 61.2311 0.292836 C61.4852 0.267626 61.7807 0.248006 62.082 0.239884 L64.4803 0.239884 C65.6587 0.239884 66.6477 0.584142 67.3433 1.17945 C68.0454 1.77999 68.4485 2.63548 68.4485 3.65015 C68.4485 4.45354 68.2029 5.16286 67.7593 5.73262 C67.3325 6.28107 66.7223 6.70111 65.9719 6.95199 L68.1213 10.3112 C68.3328 10.6441 68.5119 10.9127 68.6799 11.1235 C68.8439 11.3285 68.9966 11.4779 69.1578 11.5779 L69.295 11.6632 L69.1543 11.7412 C69.0096 11.8215 68.8329 11.8799 68.6505 11.9183 C68.4387 11.9629 68.2167 11.9831 68.0252 11.9831 C67.8217 11.9831 67.595 11.9472 67.3479 11.7868 C67.109 11.6319 66.8521 11.3592 66.5819 10.8872 L64.2477 7.20743 L62.7869 7.20911 L62.409 7.21926 L62.409 10.411 C62.409 10.7363 62.4132 10.9961 62.4369 11.1956 C62.4594 11.3827 62.4988 11.5151 62.5674 11.5977 L62.6453 11.6917 L62.5349 11.7442 C62.3747 11.8203 62.1869 11.8766 62.0037 11.9147 C61.7767 11.9621 61.5542 11.9831 61.3948 11.9831 C61.1962 11.9831 61.0146 11.9384 60.8789 11.7633 L60.8789 11.7635 M57.5918 6.35127 C57.4341 6.42435 57.1665 6.46901 56.7172 6.46901 L52.5294 6.47069 L52.1515 6.48084 L52.1515 10.819 C52.3633 10.8085 52.5648 10.8083 52.7784 10.8083 L56.832 10.8083 C57.1573 10.8083 57.4172 10.8041 57.6166 10.7804 C57.8037 10.7579 57.9362 10.7185 58.0188 10.65 L58.0908 10.5899 L58.1517 10.6615 C58.2392 10.765 58.2989 10.885 58.3378 11.0047 C58.3872 11.1567 58.4041 11.3101 58.4041 11.4287 C58.4041 11.5684 58.3564 11.698 58.1685 11.7905 C58.0106 11.8684 57.742 11.9174 57.2915 11.9174 L53.0246 11.9174 C52.6135 11.9174 52.2567 11.9215 51.8899 11.9375 C51.5203 11.9538 51.1358 11.9827 50.6711 12.0316 L50.599 12.0394 L50.5731 11.9715 C50.5283 11.8548 50.4884 11.6977 50.4605 11.5244 C50.4348 11.3636 50.4189 11.1883 50.4189 11.0185 L50.4189 2.82935 C50.4189 2.42064 50.4106 2.05675 50.3862 1.68239 C50.362 1.30802 50.3209 0.919942 50.2558 0.463357 L50.2417 0.367267 L50.3385 0.355594 C50.668 0.316516 51.0284 0.288265 51.3985 0.269485 C51.8071 0.249019 52.2271 0.239884 52.6309 0.239884 L56.6681 0.239884 C56.9953 0.239884 57.2602 0.235655 57.4632 0.215862 C57.6566 0.197081 57.7949 0.164433 57.8795 0.108099 L57.9528 0.0592139 L58.0069 0.129248 C58.0863 0.232273 58.1414 0.349164 58.1774 0.464029 C58.2231 0.6085 58.24 0.751616 58.24 0.860057 C58.24 1.00943 58.1918 1.13783 58.0056 1.22851 C57.8499 1.30378 57.5858 1.34895 57.1438 1.34895 L52.4308 1.35063 L52.1094 1.3601 C52.122 1.54112 52.132 1.72822 52.139 1.92006 C52.1472 2.14556 52.1515 2.37224 52.1515 2.59944 L52.1515 5.37059 C52.3543 5.36044 52.5664 5.3601 52.7784 5.3601 L56.2577 5.3601 C56.5832 5.3601 56.8435 5.35587 57.046 5.33997 C57.2389 5.32457 57.3757 5.29835 57.4625 5.25521 L57.5261 5.22358 L57.5747 5.27653 C57.6625 5.37262 57.7225 5.48512 57.762 5.59744 C57.8124 5.74141 57.8296 5.88621 57.8296 5.99668 C57.8296 6.13811 57.7814 6.26329 57.5918 6.35126 L57.5918 6.35127 M48.7674 1.2192 C48.6113 1.29955 48.3462 1.34895 47.9035 1.34895 L44.966 1.34895 C44.9813 1.74599 44.9955 2.14405 44.9955 2.55039 L44.9955 10.4111 C44.9955 10.7349 45.0071 10.9922 45.0466 11.1885 C45.0838 11.3725 45.144 11.5033 45.2408 11.5864 L45.3538 11.6836 L45.2181 11.745 C45.0484 11.8218 44.8517 11.8787 44.6581 11.9166 C44.4237 11.9628 44.1907 11.9832 44.0141 11.9832 C43.817 11.9832 43.6276 11.9391 43.484 11.7662 C43.3495 11.6043 43.2627 11.3299 43.2627 10.8708 L43.2627 2.79653 C43.2627 2.51368 43.2627 2.25959 43.2568 2.0214 C43.2519 1.80097 43.241 1.58241 43.2216 1.34895 L41.8643 1.34895 C41.4533 1.34895 41.0923 1.353 40.7236 1.36908 C40.352 1.38533 39.9676 1.41425 39.5112 1.46281 L39.4388 1.47058 L39.4129 1.40275 C39.3662 1.28146 39.3197 1.11618 39.2874 0.935676 C39.26 0.780713 39.2421 0.612729 39.2421 0.449819 L39.2421 0.365743 L39.3258 0.355594 C39.655 0.316516 40.0153 0.288265 40.3855 0.269485 C40.7942 0.249019 41.2141 0.239884 41.618 0.239884 L47.4275 0.239884 C47.7519 0.239884 48.015 0.231595 48.2187 0.204021 C48.4102 0.177629 48.5472 0.134658 48.6307 0.0651341 L48.7091 0 L48.7686 0.0830624 C48.8463 0.191839 48.9002 0.314489 48.9364 0.43375 C48.9826 0.585666 48.9995 0.734534 48.9995 0.843814 C48.9995 0.992004 48.9518 1.12464 48.7673 1.21937 L48.7674 1.2192 M36.7685 7.4441 C36.1055 5.74886 35.4456 4.0521 34.7792 2.35822 L32.828 7.4441 L36.7685 7.4441 M38.6966 11.7797 C38.5024 11.6248 38.3113 11.3573 38.1323 10.9056 L37.2042 8.55317 L32.3944 8.55317 L31.6792 10.4445 C31.5657 10.7363 31.4845 10.9792 31.432 11.1815 C31.381 11.3778 31.3573 11.5344 31.3573 11.6584 L31.3573 11.7198 L31.3016 11.745 C31.1323 11.8218 30.9484 11.8785 30.7728 11.9166 C30.5615 11.9628 30.361 11.9832 30.2118 11.9832 C30.0939 11.9832 29.9843 11.9575 29.9048 11.8902 C29.8327 11.8288 29.7886 11.7383 29.7886 11.6094 C29.7886 11.528 29.8018 11.426 29.832 11.2981 C29.8611 11.176 29.9077 11.0247 29.9752 10.8386 L33.1596 2.76202 C33.2958 2.43079 33.4367 2.04863 33.5735 1.62876 C33.6977 1.24847 33.8182 0.838062 33.9273 0.409896 L33.9413 0.355259 L33.9965 0.341217 C34.1442 0.304334 34.4092 0.262215 34.7315 0.231931 C34.9937 0.207572 35.2926 0.190483 35.5948 0.190483 L35.653 0.190483 L35.6794 0.243099 C35.8539 0.592264 36.0233 0.96731 36.1869 1.3498 C36.3499 1.73093 36.5108 2.12747 36.6675 2.51503 L39.7695 10.3766 C39.8989 10.7091 40.0123 10.9677 40.128 11.1653 C40.2393 11.3553 40.3537 11.4896 40.4887 11.5796 L40.6179 11.6659 L40.4822 11.7412 C40.3418 11.8191 40.1573 11.8763 39.9664 11.9151 C39.734 11.9624 39.4895 11.9831 39.3038 11.9831 C39.1049 11.9831 38.9 11.9416 38.697 11.7797 L38.6966 11.7797 M22.772 2.58913 C22.1198 3.41941 21.7394 4.60257 21.7394 6.01293 C21.7394 7.46423 22.1159 8.68631 22.7731 9.54179 C23.4211 10.3856 24.3452 10.8738 25.4516 10.8738 C27.1252 10.8738 27.8514 10.3261 28.3041 9.98467 C28.5281 9.81551 28.6917 9.69235 28.8818 9.69235 C28.9437 9.69235 29.0133 9.7118 29.0838 9.74073 C29.1479 9.76712 29.2132 9.8018 29.2733 9.83631 L29.6077 10.0373 L29.5504 10.12 C29.1628 10.6796 28.5519 11.1597 27.8 11.494 C27.0842 11.812 26.2397 11.9993 25.3369 11.9993 C23.6706 11.9993 22.3201 11.4262 21.3805 10.435 C20.4215 9.42269 19.8919 7.97529 19.8919 6.2589 C19.8919 4.43916 20.4434 2.9048 21.4305 1.82973 C22.4032 0.770061 23.7971 0.1575 25.501 0.1575 C26.608 0.1575 27.5038 0.403975 28.1612 0.74485 C29.0253 1.19349 29.4852 1.81535 29.4852 2.27092 C29.4852 2.5426 29.3464 2.72666 29.0955 2.84136 C28.8666 2.94591 28.5413 2.98972 28.1432 2.98972 L28.0786 2.98972 L28.0549 2.92915 C27.8602 2.43434 27.5149 2.01362 27.0523 1.72231 C26.6123 1.44504 26.0636 1.28315 25.4354 1.28315 C24.3469 1.28315 23.4229 1.76071 22.772 2.58896 L22.772 2.58913 M20.0346 11.79 C19.8807 11.868 19.6161 11.9174 19.1653 11.9174 L15.0626 11.9174 C14.6515 11.9174 14.2947 11.9215 13.928 11.9376 C13.5584 11.9538 13.1738 11.9827 12.7091 12.0316 L12.6371 12.0394 L12.6112 11.9716 C12.5664 11.8548 12.5264 11.6977 12.4985 11.5244 C12.4728 11.3636 12.4569 11.1883 12.4569 11.0185 L12.4569 2.79653 C12.4569 2.38782 12.4486 2.0324 12.4243 1.66395 C12.4001 1.29482 12.359 0.910975 12.2938 0.446268 L12.2823 0.365407 L12.3612 0.342231 C12.5127 0.29791 12.7751 0.253248 13.084 0.221278 C13.3606 0.193027 13.6751 0.174078 13.9799 0.174078 L14.0642 0.174078 L14.0742 0.257812 C14.1131 0.586511 14.1415 0.946502 14.1599 1.31681 C14.1804 1.72552 14.1895 2.1459 14.1895 2.55005 L14.1895 10.8188 C14.4013 10.8084 14.6028 10.8082 14.8165 10.8082 L18.706 10.8082 C19.0313 10.8082 19.2911 10.804 19.4906 10.7803 C19.6777 10.7578 19.8102 10.7184 19.8927 10.6498 L19.9683 10.5869 L20.0284 10.6647 C20.1084 10.7688 20.1639 10.8892 20.1998 11.009 C20.2449 11.1589 20.2617 11.3103 20.2617 11.4285 C20.2617 11.5678 20.219 11.6967 20.035 11.7899 L20.0346 11.79 M6.9799 7.4441 C6.31693 5.74886 5.657 4.0521 4.99064 2.35822 L3.03945 7.4441 L6.9799 7.4441 M8.90808 11.7797 C8.71388 11.6248 8.52272 11.3573 8.34374 10.9056 L7.41568 8.55317 L2.60587 8.55317 L1.89063 10.4445 C1.77712 10.7363 1.69592 10.9792 1.64347 11.1815 C1.59238 11.3778 1.5687 11.5344 1.5687 11.6584 L1.5687 11.7198 L1.51304 11.745 C1.34371 11.8218 1.15982 11.8785 0.984223 11.9166 C0.772931 11.9628 0.572466 11.9832 0.423259 11.9832 C0.305349 11.9832 0.195728 11.9575 0.116218 11.8902 C0.044153 11.8288 0 11.7383 0 11.6094 C0 11.528 0.0131947 11.426 0.0434758 11.2981 C0.0725728 11.176 0.119094 11.0247 0.186593 10.8386 L3.37102 2.76202 C3.5072 2.43079 3.64812 2.04863 3.78498 1.62876 C3.90915 1.24847 4.0296 0.838062 4.13871 0.409896 L4.15275 0.355259 L4.2079 0.341217 C4.35558 0.304334 4.62067 0.262215 4.94294 0.231931 C5.20515 0.207572 5.50407 0.190483 5.80621 0.190483 L5.8644 0.190483 L5.89079 0.243099 C6.06537 0.592264 6.23471 0.96731 6.3983 1.3498 C6.56137 1.73093 6.72225 2.12747 6.8789 2.51503 L9.98095 10.3766 C10.1104 10.7091 10.2237 10.9677 10.3394 11.1653 C10.4507 11.3553 10.5651 11.4896 10.7001 11.5796 L10.8293 11.6659 L10.6937 11.7412 C10.5532 11.8191 10.3687 11.8763 10.1779 11.9151 C9.94542 11.9624 9.70098 11.9831 9.51523 11.9831 C9.31629 11.9831 9.11142 11.9416 8.90842 11.7797 L8.90808 11.7797 " style="fill:#ffffff; fill-rule:nonzero;stroke:none;"/>
 </g>
</svg>
