<?xml version="1.0" encoding="UTF-8" standalone="no"?>
<svg
   xmlns:dc="http://purl.org/dc/elements/1.1/"
   xmlns:cc="http://creativecommons.org/ns#"
   xmlns:rdf="http://www.w3.org/1999/02/22-rdf-syntax-ns#"
   xmlns:svg="http://www.w3.org/2000/svg"
   xmlns="http://www.w3.org/2000/svg"
   xmlns:sodipodi="http://sodipodi.sourceforge.net/DTD/sodipodi-0.dtd"
   xmlns:inkscape="http://www.inkscape.org/namespaces/inkscape"
   viewBox="0 0 94.480477 65.932439"
   id="svg2"
   version="1.1"
   inkscape:version="0.91 r13725"
   sodipodi:docname="AMIfv97knAvUGEmFHe4sH9RAYm_NYKWgqVhGdZInvUbDlppORsO9Li7TXPyEEqk39z04PqVBg_ec8B_iF7oACE9xw1LkhNjLqVzfoc0jwU--EzXudr3ceJ359EozrggSOfh3gU_wRziKFfVgRzzha96nLj1m6LtddEO3gaNJbgyroxWpyIj8kaw.svg">
  <metadata
     id="metadata13">
    <rdf:RDF>
      <cc:Work
         rdf:about="">
        <dc:format>image/svg+xml</dc:format>
        <dc:type
           rdf:resource="http://purl.org/dc/dcmitype/StillImage" />
      </cc:Work>
    </rdf:RDF>
  </metadata>
  <defs
     id="defs11" />
  <sodipodi:namedview
     pagecolor="#ffffff"
     bordercolor="#666666"
     borderopacity="1"
     objecttolerance="10"
     gridtolerance="10"
     guidetolerance="10"
     inkscape:pageopacity="0"
     inkscape:pageshadow="2"
     inkscape:window-width="1148"
     inkscape:window-height="650"
     id="namedview9"
     showgrid="false"
     inkscape:zoom="3.3657747"
     inkscape:cx="83.412869"
     inkscape:cy="52.513576"
     inkscape:window-x="0"
     inkscape:window-y="0"
     inkscape:window-maximized="0"
     inkscape:current-layer="svg2" />
  <path
     inkscape:transform-center-y="-0.0023261615"
     inkscape:transform-center-x="32.530834"
     inkscape:connector-curvature="0"
     id="path4342"
     d="m 57.6,51.9 c 0,0 -25.4,-9.1 -36.3,-9.1 -9.1,0 -18.1,1.8 -18.1,9.1 0,7.3 9.1,9.1 18.1,9.1 10.9,0 36.3,-9.1 36.3,-9.1 z"
     style="display:inline;fill:none;fill-opacity:1;fill-rule:evenodd;stroke:#ffffff;stroke-width:4;stroke-linecap:butt;stroke-linejoin:miter;stroke-miterlimit:4;stroke-dasharray:none;stroke-opacity:1" />
  <path
     inkscape:transform-center-y="-24.051949"
     inkscape:transform-center-x="24.048665"
     inkscape:connector-curvature="0"
     id="path4344"
     d="M 54.8,59.5 C 54.8,59.5 43.3,35.1 35.6,27.4 29.2,21 21.5,15.9 16.4,21 c -5.1,5.1 0,12.8 6.4,19.2 7.7,7.7 32.1,19.2 32.1,19.2 z"
     style="display:inline;fill:none;fill-opacity:1;fill-rule:evenodd;stroke:#ffffff;stroke-width:4;stroke-linecap:butt;stroke-linejoin:miter;stroke-miterlimit:4;stroke-dasharray:none;stroke-opacity:1" />
  <path
     style="display:inline;fill:none;fill-opacity:1;fill-rule:evenodd;stroke:#ffffff;stroke-width:4;stroke-linecap:butt;stroke-linejoin:miter;stroke-miterlimit:4;stroke-dasharray:none;stroke-opacity:1"
     d="m 38.3,59.7 c 0,0 24.4,-11.5 32.1,-19.2 6.4,-6.4 11.5,-14.1 6.4,-19.2 -5.1,-5.1 -12.8,0 -19.2,6.4 -7.7,7.7 -19.2,32.1 -19.2,32.1 z"
     id="path4346"
     inkscape:connector-curvature="0"
     inkscape:transform-center-x="-24.051959"
     inkscape:transform-center-y="-24.048663" />
  <path
     style="display:inline;fill:none;fill-opacity:1;fill-rule:evenodd;stroke:#ffffff;stroke-width:4;stroke-linecap:butt;stroke-linejoin:miter;stroke-miterlimit:4;stroke-dasharray:none;stroke-opacity:1"
     d="M 35.6,51.9 C 35.6,51.9 61,61 71.9,61 81,61 90,59.2 90,51.9 90,44.6 80.9,42.8 71.9,42.8 61,42.8 35.6,51.9 35.6,51.9 Z"
     id="path4348"
     inkscape:connector-curvature="0"
     inkscape:transform-center-x="-32.530835"
     inkscape:transform-center-y="0.0023208066" />
  <path
     inkscape:transform-center-y="-32.530836"
     inkscape:transform-center-x="-0.00232424"
     inkscape:connector-curvature="0"
     id="path4350"
     d="m 46.6,60.7 c 0,0 9.1,-25.4 9.1,-36.3 0,-9.1 -1.8,-18.1 -9.1,-18.1 -7.3,0 -9.1,9.1 -9.1,18.1 0,10.9 9.1,36.3 9.1,36.3 z"
     style="display:inline;fill:none;fill-opacity:1;fill-rule:evenodd;stroke:#ffffff;stroke-width:4;stroke-linecap:butt;stroke-linejoin:miter;stroke-miterlimit:4;stroke-dasharray:none;stroke-opacity:1" />
</svg>
