<?xml version="1.0" encoding="UTF-8" standalone="no"?>
<!-- Created with Inkscape (http://www.inkscape.org/) -->

<svg
   xmlns:dc="http://purl.org/dc/elements/1.1/"
   xmlns:cc="http://creativecommons.org/ns#"
   xmlns:rdf="http://www.w3.org/1999/02/22-rdf-syntax-ns#"
   xmlns:svg="http://www.w3.org/2000/svg"
   xmlns="http://www.w3.org/2000/svg"
   xmlns:sodipodi="http://sodipodi.sourceforge.net/DTD/sodipodi-0.dtd"
   xmlns:inkscape="http://www.inkscape.org/namespaces/inkscape"
   width="1000"
   height="1000"
   viewBox="0 0 999.99999 1000"
   id="svg2"
   version="1.1"
   inkscape:version="0.91 r13725"
   sodipodi:docname="overlay5.svg">
  <defs
     id="defs4" />
  <sodipodi:namedview
     id="base"
     pagecolor="#ffffff"
     bordercolor="#666666"
     borderopacity="1.0"
     inkscape:pageopacity="0.0"
     inkscape:pageshadow="2"
     inkscape:zoom="0.286"
     inkscape:cx="507.29715"
     inkscape:cy="451.27418"
     inkscape:document-units="px"
     inkscape:current-layer="layer4"
     showgrid="false"
     units="px"
     inkscape:window-width="1219"
     inkscape:window-height="628"
     inkscape:window-x="0"
     inkscape:window-y="0"
     inkscape:window-maximized="0" />
  <metadata
     id="metadata7">
    <rdf:RDF>
      <cc:Work
         rdf:about="">
        <dc:format>image/svg+xml</dc:format>
        <dc:type
           rdf:resource="http://purl.org/dc/dcmitype/StillImage" />
        <dc:title></dc:title>
      </cc:Work>
    </rdf:RDF>
  </metadata>
  <g
     inkscape:label="Layer 1"
     inkscape:groupmode="layer"
     id="layer1"
     transform="translate(0,-52.362161)"
     sodipodi:insensitive="true">
    <path
       style="fill:#ffffff;fill-opacity:0.07843137;fill-rule:nonzero;stroke:none;stroke-width:5;stroke-miterlimit:4;stroke-dasharray:none;stroke-opacity:1"
       id="path4136"
       sodipodi:type="arc"
       sodipodi:cx="500"
       sodipodi:cy="-1052.3622"
       sodipodi:rx="250"
       sodipodi:ry="249.99998"
       sodipodi:start="0"
       sodipodi:end="3.1415927"
       sodipodi:open="true"
       d="m 750,-1052.3622 a 250,249.99998 0 0 1 -125,216.50636 250,249.99998 0 0 1 -250.00001,-1e-5 A 250,249.99998 0 0 1 250,-1052.3622"
       transform="scale(1,-1)" />
  </g>
  <g
     inkscape:groupmode="layer"
     id="layer12"
     inkscape:label="Layer -1"
     sodipodi:insensitive="true">
    <path
       style="fill:#ffffff;fill-opacity:0.07843137;fill-rule:nonzero;stroke:none;stroke-width:5;stroke-miterlimit:4;stroke-dasharray:none;stroke-opacity:1"
       id="path4136-5-1"
       sodipodi:type="arc"
       sodipodi:cx="500"
       sodipodi:cy="-1000"
       sodipodi:rx="50"
       sodipodi:ry="49.999996"
       sodipodi:start="0"
       sodipodi:end="3.1415927"
       sodipodi:open="true"
       d="m 550,-1000 a 50,49.999996 0 0 1 -25,43.30127 50,49.999996 0 0 1 -50,0 A 50,49.999996 0 0 1 450,-1000"
       transform="scale(1,-1)" />
  </g>
  <g
     inkscape:groupmode="layer"
     id="layer11"
     inkscape:label="Layer 0"
     sodipodi:insensitive="true">
    <path
       style="fill:#ffffff;fill-opacity:0.07843137;fill-rule:nonzero;stroke:none;stroke-width:5;stroke-miterlimit:4;stroke-dasharray:none;stroke-opacity:1"
       id="path4136-5"
       sodipodi:type="arc"
       sodipodi:cx="500"
       sodipodi:cy="-1000"
       sodipodi:rx="150"
       sodipodi:ry="150"
       sodipodi:start="0"
       sodipodi:end="3.1415927"
       sodipodi:open="true"
       d="m 650,-1000 a 150,150 0 0 1 -75,129.90381 150,150 0 0 1 -150,0 A 150,150 0 0 1 350,-1000"
       transform="scale(1,-1)" />
  </g>
  <g
     inkscape:groupmode="layer"
     id="layer2"
     inkscape:label="Layer 2"
     style="display:inline"
     sodipodi:insensitive="true">
    <path
       style="fill:#ffffff;fill-opacity:0.07843137;fill-rule:nonzero;stroke:none;stroke-width:5;stroke-miterlimit:4;stroke-dasharray:none;stroke-opacity:1"
       id="path4136-9-3"
       sodipodi:type="arc"
       sodipodi:cx="500"
       sodipodi:cy="-1000"
       sodipodi:rx="350"
       sodipodi:ry="349.99997"
       sodipodi:start="0"
       sodipodi:end="3.1415927"
       sodipodi:open="true"
       d="m 850,-1000 a 350,349.99997 0 0 1 -175,303.10887 350,349.99997 0 0 1 -350.00001,-10e-6 A 350,349.99997 0 0 1 150,-1000"
       transform="scale(1,-1)" />
  </g>
  <g
     inkscape:groupmode="layer"
     id="layer3"
     inkscape:label="Layer 3"
     sodipodi:insensitive="true">
    <path
       style="display:inline;fill:#ffffff;fill-opacity:0.07843137;fill-rule:nonzero;stroke:none;stroke-width:5;stroke-miterlimit:4;stroke-dasharray:none;stroke-opacity:1"
       id="path4136-9-3-5"
       sodipodi:type="arc"
       sodipodi:cx="500"
       sodipodi:cy="-1000"
       sodipodi:rx="450"
       sodipodi:ry="449.99997"
       sodipodi:start="0"
       sodipodi:end="3.1415927"
       sodipodi:open="true"
       d="m 950,-1000 a 450,449.99997 0 0 1 -225.00001,389.71141 450,449.99997 0 0 1 -450,-10e-6 A 450,449.99997 0 0 1 50,-1000"
       transform="scale(1,-1)" />
  </g>
  <g
     inkscape:groupmode="layer"
     id="layer4"
     inkscape:label="Layer 4">
    <path
       style="display:inline;fill:#ffffff;fill-opacity:0.07843137;fill-rule:nonzero;stroke:none;stroke-width:5;stroke-miterlimit:4;stroke-dasharray:none;stroke-opacity:1"
       id="path4136-9-3-5-4"
       sodipodi:type="arc"
       sodipodi:cx="500"
       sodipodi:cy="-1000"
       sodipodi:rx="550"
       sodipodi:ry="550"
       sodipodi:start="0"
       sodipodi:end="3.1415927"
       sodipodi:open="true"
       d="m 1050,-1000 a 550,550 0 0 1 -275.00001,476.31398 550,550 0 0 1 -550,-2e-5 A 550,550 0 0 1 -50,-1000"
       transform="scale(1,-1)" />
  </g>
  <g
     inkscape:groupmode="layer"
     id="layer5"
     inkscape:label="Layer 5"
     sodipodi:insensitive="true">
    <path
       style="display:inline;fill:#ffffff;fill-opacity:0.07843137;fill-rule:nonzero;stroke:none;stroke-width:5;stroke-miterlimit:4;stroke-dasharray:none;stroke-opacity:1"
       id="path4136-9-3-5-4-7"
       sodipodi:type="arc"
       sodipodi:cx="500"
       sodipodi:cy="-1000"
       sodipodi:rx="650"
       sodipodi:ry="650"
       sodipodi:start="0"
       sodipodi:end="3.1415927"
       sodipodi:open="true"
       d="m 1150,-1000 a 650,650 0 0 1 -325.00001,562.91652 650,650 0 0 1 -650.00001,-2e-5 A 650,650 0 0 1 -150,-1000"
       transform="scale(1,-1)" />
  </g>
  <g
     inkscape:groupmode="layer"
     id="layer6"
     inkscape:label="Layer 6"
     sodipodi:insensitive="true">
    <path
       style="display:inline;fill:#ffffff;fill-opacity:0.07843137;fill-rule:nonzero;stroke:none;stroke-width:5;stroke-miterlimit:4;stroke-dasharray:none;stroke-opacity:1"
       id="path4136-9-3-5-4-7-1"
       sodipodi:type="arc"
       sodipodi:cx="500"
       sodipodi:cy="-999.99994"
       sodipodi:rx="750"
       sodipodi:ry="749.99994"
       sodipodi:start="0"
       sodipodi:end="3.1415927"
       sodipodi:open="true"
       d="m 1250,-999.99994 a 750,749.99994 0 0 1 -375.00001,649.51901 750,749.99994 0 0 1 -750.00001,-2e-5 A 750,749.99994 0 0 1 -250,-999.99997"
       transform="scale(1,-1)" />
  </g>
  <g
     inkscape:groupmode="layer"
     id="layer7"
     inkscape:label="Layer 7"
     sodipodi:insensitive="true">
    <path
       style="display:inline;fill:#ffffff;fill-opacity:0.07843137;fill-rule:nonzero;stroke:none;stroke-width:5;stroke-miterlimit:4;stroke-dasharray:none;stroke-opacity:1"
       id="path4136-9-3-5-4-7-1-6"
       sodipodi:type="arc"
       sodipodi:cx="500"
       sodipodi:cy="-999.99994"
       sodipodi:rx="850"
       sodipodi:ry="849.99994"
       sodipodi:start="0"
       sodipodi:end="3.1415927"
       sodipodi:open="true"
       d="m 1350,-999.99994 a 850,849.99994 0 0 1 -425.00001,736.12155 850,849.99994 0 0 1 -850.000013,-2e-5 A 850,849.99994 0 0 1 -350,-999.99998"
       transform="scale(1,-1)" />
  </g>
  <g
     inkscape:groupmode="layer"
     id="layer8"
     inkscape:label="Layer 8"
     sodipodi:insensitive="true">
    <path
       style="display:inline;fill:#ffffff;fill-opacity:0.07843137;fill-rule:nonzero;stroke:none;stroke-width:5;stroke-miterlimit:4;stroke-dasharray:none;stroke-opacity:1"
       id="path4136-9-3-5-4-7-1-6-8"
       sodipodi:type="arc"
       sodipodi:cx="500"
       sodipodi:cy="-999.99994"
       sodipodi:rx="950"
       sodipodi:ry="949.99994"
       sodipodi:start="0"
       sodipodi:end="3.1415927"
       sodipodi:open="true"
       d="m 1450,-999.99994 a 950,949.99994 0 0 1 -475.00001,822.72409 950,949.99994 0 0 1 -950.000015,-2e-5 A 950,949.99994 0 0 1 -450,-999.99998"
       transform="scale(1,-1)" />
  </g>
  <g
     inkscape:groupmode="layer"
     id="layer9"
     inkscape:label="Layer 9"
     sodipodi:insensitive="true">
    <path
       style="display:inline;fill:#ffffff;fill-opacity:0.07843137;fill-rule:nonzero;stroke:none;stroke-width:5;stroke-miterlimit:4;stroke-dasharray:none;stroke-opacity:1"
       id="path4136-9-3-5-4-7-1-6-8-1"
       sodipodi:type="arc"
       sodipodi:cx="500"
       sodipodi:cy="-999.99994"
       sodipodi:rx="1050"
       sodipodi:ry="1050"
       sodipodi:start="0"
       sodipodi:end="3.1415927"
       sodipodi:open="true"
       d="M 1550,-999.99994 A 1050,1050 0 0 1 1025,-90.673257 1050,1050 0 0 1 -25.000028,-90.673281 1050,1050 0 0 1 -550,-999.99999"
       transform="scale(1,-1)" />
  </g>
  <g
     inkscape:groupmode="layer"
     id="layer10"
     inkscape:label="Layer 10"
     sodipodi:insensitive="true">
    <path
       style="display:inline;fill:#ffffff;fill-opacity:0.07843137;fill-rule:nonzero;stroke:none;stroke-width:5;stroke-miterlimit:4;stroke-dasharray:none;stroke-opacity:1"
       id="path4136-9-3-5-4-7-1-6-8-1-5"
       sodipodi:type="arc"
       sodipodi:cx="500"
       sodipodi:cy="-999.99994"
       sodipodi:rx="1150"
       sodipodi:ry="1150"
       sodipodi:start="0"
       sodipodi:end="3.1415927"
       sodipodi:open="true"
       d="M 1650,-999.99994 A 1150,1150 0 0 1 1075,-4.0707157 1150,1150 0 0 1 -75.000031,-4.0707424 1150,1150 0 0 1 -650,-999.99999"
       transform="scale(1,-1)" />
  </g>
</svg>
