<?xml version="1.0" encoding="UTF-8" standalone="no"?>
<!-- Created with Inkscape (http://www.inkscape.org/) -->

<svg
   xmlns:dc="http://purl.org/dc/elements/1.1/"
   xmlns:cc="http://creativecommons.org/ns#"
   xmlns:rdf="http://www.w3.org/1999/02/22-rdf-syntax-ns#"
   xmlns:svg="http://www.w3.org/2000/svg"
   xmlns="http://www.w3.org/2000/svg"
   xmlns:sodipodi="http://sodipodi.sourceforge.net/DTD/sodipodi-0.dtd"
   xmlns:inkscape="http://www.inkscape.org/namespaces/inkscape"
   width="1000"
   height="1000"
   viewBox="0 0 999.99999 1000"
   id="svg2"
   version="1.1"
   inkscape:version="0.91 r13725"
   sodipodi:docname="overlay7.svg">
  <defs
     id="defs4" />
  <sodipodi:namedview
     id="base"
     pagecolor="#ffffff"
     bordercolor="#666666"
     borderopacity="1.0"
     inkscape:pageopacity="0.0"
     inkscape:pageshadow="2"
     inkscape:zoom="0.10111627"
     inkscape:cx="1457.4595"
     inkscape:cy="395.83024"
     inkscape:document-units="px"
     inkscape:current-layer="layer1"
     showgrid="false"
     units="px"
     inkscape:window-width="1219"
     inkscape:window-height="628"
     inkscape:window-x="0"
     inkscape:window-y="0"
     inkscape:window-maximized="0" />
  <metadata
     id="metadata7">
    <rdf:RDF>
      <cc:Work
         rdf:about="">
        <dc:format>image/svg+xml</dc:format>
        <dc:type
           rdf:resource="http://purl.org/dc/dcmitype/StillImage" />
        <dc:title></dc:title>
      </cc:Work>
    </rdf:RDF>
  </metadata>
  <g
     inkscape:label="Layer 1"
     inkscape:groupmode="layer"
     id="layer1"
     transform="translate(0,-52.362161)">
    <path
       style="fill:#ffffff;fill-opacity:0.07843137;fill-rule:nonzero;stroke:none;stroke-width:5;stroke-miterlimit:4;stroke-dasharray:none;stroke-opacity:1"
       id="path4136"
       sodipodi:type="arc"
       sodipodi:cx="500"
       sodipodi:cy="52.362083"
       sodipodi:rx="250"
       sodipodi:ry="249.99998"
       sodipodi:start="0"
       sodipodi:end="3.1415927"
       sodipodi:open="true"
       d="m 750,52.362083 a 250,249.99998 0 0 1 -125,216.506337 250,249.99998 0 0 1 -250.00001,0 A 250,249.99998 0 0 1 250,52.362072" />
  </g>
  <g
     inkscape:groupmode="layer"
     id="layer12"
     inkscape:label="Layer -1">
    <path
       style="fill:#ffffff;fill-opacity:0.07843137;fill-rule:nonzero;stroke:none;stroke-width:5;stroke-miterlimit:4;stroke-dasharray:none;stroke-opacity:1"
       id="path4136-5-1"
       sodipodi:type="arc"
       sodipodi:cx="500"
       sodipodi:cy="-6.1035156e-05"
       sodipodi:rx="50"
       sodipodi:ry="49.999996"
       sodipodi:start="0"
       sodipodi:end="3.1415927"
       sodipodi:open="true"
       d="M 550,-6.1035156e-5 A 50,49.999996 0 0 1 525,43.301206 50,49.999996 0 0 1 475,43.301205 50,49.999996 0 0 1 450,-6.3355666e-5" />
  </g>
  <g
     inkscape:groupmode="layer"
     id="layer11"
     inkscape:label="Layer 0">
    <path
       style="fill:#ffffff;fill-opacity:0.07843137;fill-rule:nonzero;stroke:none;stroke-width:5;stroke-miterlimit:4;stroke-dasharray:none;stroke-opacity:1"
       id="path4136-5"
       sodipodi:type="arc"
       sodipodi:cx="500"
       sodipodi:cy="-6.1035156e-05"
       sodipodi:rx="150"
       sodipodi:ry="150"
       sodipodi:start="0"
       sodipodi:end="3.1415927"
       sodipodi:open="true"
       d="M 650,-6.1035156e-5 A 150,150 0 0 1 575,129.90375 a 150,150 0 0 1 -150,0 A 150,150 0 0 1 350,-6.7996687e-5" />
  </g>
  <g
     inkscape:groupmode="layer"
     id="layer2"
     inkscape:label="Layer 2"
     style="display:inline">
    <path
       style="fill:#ffffff;fill-opacity:0.07843137;fill-rule:nonzero;stroke:none;stroke-width:5;stroke-miterlimit:4;stroke-dasharray:none;stroke-opacity:1"
       id="path4136-9-3"
       sodipodi:type="arc"
       sodipodi:cx="500"
       sodipodi:cy="-6.1035156e-05"
       sodipodi:rx="350"
       sodipodi:ry="349.99997"
       sodipodi:start="0"
       sodipodi:end="3.1415927"
       sodipodi:open="true"
       d="M 850,-6.1035156e-5 A 350,349.99997 0 0 1 675,303.10881 350,349.99997 0 0 1 324.99999,303.1088 350,349.99997 0 0 1 150,-7.7278727e-5" />
  </g>
  <g
     inkscape:groupmode="layer"
     id="layer3"
     inkscape:label="Layer 3">
    <path
       style="display:inline;fill:#ffffff;fill-opacity:0.07843137;fill-rule:nonzero;stroke:none;stroke-width:5;stroke-miterlimit:4;stroke-dasharray:none;stroke-opacity:1"
       id="path4136-9-3-5"
       sodipodi:type="arc"
       sodipodi:cx="500"
       sodipodi:cy="-6.1035156e-05"
       sodipodi:rx="450"
       sodipodi:ry="449.99997"
       sodipodi:start="0"
       sodipodi:end="3.1415927"
       sodipodi:open="true"
       d="M 950,-6.1035156e-5 A 450,449.99997 0 0 1 724.99999,389.71135 a 450,449.99997 0 0 1 -450,-10e-6 A 450,449.99997 0 0 1 50,-8.1919748e-5" />
  </g>
  <g
     inkscape:groupmode="layer"
     id="layer4"
     inkscape:label="Layer 4">
    <path
       style="display:inline;fill:#ffffff;fill-opacity:0.07843137;fill-rule:nonzero;stroke:none;stroke-width:5;stroke-miterlimit:4;stroke-dasharray:none;stroke-opacity:1"
       id="path4136-9-3-5-4"
       sodipodi:type="arc"
       sodipodi:cx="500"
       sodipodi:cy="-6.1035156e-05"
       sodipodi:rx="550"
       sodipodi:ry="550"
       sodipodi:start="0"
       sodipodi:end="3.1415927"
       sodipodi:open="true"
       d="M 1050,-6.1035156e-5 A 550,550 0 0 1 774.99999,476.31392 a 550,550 0 0 1 -550,-2e-5 A 550,550 0 0 1 -50,-8.656077e-5" />
  </g>
  <g
     inkscape:groupmode="layer"
     id="layer5"
     inkscape:label="Layer 5">
    <path
       style="display:inline;fill:#ffffff;fill-opacity:0.07843137;fill-rule:nonzero;stroke:none;stroke-width:5;stroke-miterlimit:4;stroke-dasharray:none;stroke-opacity:1"
       id="path4136-9-3-5-4-7"
       sodipodi:type="arc"
       sodipodi:cx="500"
       sodipodi:cy="-6.1035156e-05"
       sodipodi:rx="650"
       sodipodi:ry="650"
       sodipodi:start="0"
       sodipodi:end="3.1415927"
       sodipodi:open="true"
       d="M 1150,-6.1035156e-5 A 650,650 0 0 1 824.99999,562.91646 650,650 0 0 1 174.99998,562.91644 650,650 0 0 1 -150,-9.1201791e-5" />
  </g>
  <g
     inkscape:groupmode="layer"
     id="layer6"
     inkscape:label="Layer 6">
    <path
       style="display:inline;fill:#ffffff;fill-opacity:0.07843137;fill-rule:nonzero;stroke:none;stroke-width:5;stroke-miterlimit:4;stroke-dasharray:none;stroke-opacity:1"
       id="path4136-9-3-5-4-7-1"
       sodipodi:type="arc"
       sodipodi:cx="500"
       sodipodi:cy="0"
       sodipodi:rx="750"
       sodipodi:ry="749.99994"
       sodipodi:start="0"
       sodipodi:end="3.1415927"
       sodipodi:open="true"
       d="M 1250,0 A 750,749.99994 0 0 1 874.99999,649.51901 750,749.99994 0 0 1 124.99998,649.51899 750,749.99994 0 0 1 -250,-3.4807652e-5" />
  </g>
  <g
     inkscape:groupmode="layer"
     id="layer7"
     inkscape:label="Layer 7">
    <path
       style="display:inline;fill:#ffffff;fill-opacity:0.07843137;fill-rule:nonzero;stroke:none;stroke-width:5;stroke-miterlimit:4;stroke-dasharray:none;stroke-opacity:1"
       id="path4136-9-3-5-4-7-1-6"
       sodipodi:type="arc"
       sodipodi:cx="500"
       sodipodi:cy="0"
       sodipodi:rx="850"
       sodipodi:ry="849.99994"
       sodipodi:start="0"
       sodipodi:end="3.1415927"
       sodipodi:open="true"
       d="M 1350,0 A 850,849.99994 0 0 1 924.99999,736.12155 850,849.99994 0 0 1 74.999977,736.12153 850,849.99994 0 0 1 -350,-3.9448673e-5" />
  </g>
  <g
     inkscape:groupmode="layer"
     id="layer8"
     inkscape:label="Layer 8">
    <path
       style="display:inline;fill:#ffffff;fill-opacity:0.07843137;fill-rule:nonzero;stroke:none;stroke-width:5;stroke-miterlimit:4;stroke-dasharray:none;stroke-opacity:1"
       id="path4136-9-3-5-4-7-1-6-8"
       sodipodi:type="arc"
       sodipodi:cx="500"
       sodipodi:cy="0"
       sodipodi:rx="950"
       sodipodi:ry="949.99994"
       sodipodi:start="0"
       sodipodi:end="3.1415927"
       sodipodi:open="true"
       d="M 1450,0 A 950,949.99994 0 0 1 974.99999,822.72409 950,949.99994 0 0 1 24.999975,822.72407 950,949.99994 0 0 1 -450,-4.4089694e-5" />
  </g>
  <g
     inkscape:groupmode="layer"
     id="layer9"
     inkscape:label="Layer 9">
    <path
       style="display:inline;fill:#ffffff;fill-opacity:0.07843137;fill-rule:nonzero;stroke:none;stroke-width:5;stroke-miterlimit:4;stroke-dasharray:none;stroke-opacity:1"
       id="path4136-9-3-5-4-7-1-6-8-1"
       sodipodi:type="arc"
       sodipodi:cx="500"
       sodipodi:cy="0"
       sodipodi:rx="1050"
       sodipodi:ry="1050"
       sodipodi:start="0"
       sodipodi:end="3.1415927"
       sodipodi:open="true"
       d="M 1550,0 A 1050,1050 0 0 1 1025,909.32668 1050,1050 0 0 1 -25.000028,909.32666 1050,1050 0 0 1 -550,-4.8730717e-5" />
  </g>
  <g
     inkscape:groupmode="layer"
     id="layer10"
     inkscape:label="Layer 10">
    <path
       style="display:inline;fill:#ffffff;fill-opacity:0.07843137;fill-rule:nonzero;stroke:none;stroke-width:5;stroke-miterlimit:4;stroke-dasharray:none;stroke-opacity:1"
       id="path4136-9-3-5-4-7-1-6-8-1-5"
       sodipodi:type="arc"
       sodipodi:cx="500"
       sodipodi:cy="0"
       sodipodi:rx="1150"
       sodipodi:ry="1150"
       sodipodi:start="0"
       sodipodi:end="3.1415927"
       sodipodi:open="true"
       d="M 1650,0 A 1150,1150 0 0 1 1075,995.92922 1150,1150 0 0 1 -75.000031,995.9292 1150,1150 0 0 1 -650,-5.3371738e-5" />
  </g>
</svg>
