<svg xmlns="http://www.w3.org/2000/svg" viewBox="0 0 999.99999 1000"><g fill="#fff" fill-opacity=".078" transform="scale(1-1)"><path d="m650-1000a150 150 0 0 1 -75 129.90381 150 150 0 0 1 -150 0A150 150 0 0 1 350 -1000"/><path d="m850-1000a350 349.99997 0 0 1 -175 303.10887 350 349.99997 0 0 1 -350.00001 -.00001A350 349.99997 0 0 1 150 -1000"/><path d="m1050-1000a550 550 0 0 1 -275.00001 476.31398 550 550 0 0 1 -550 -.00002A550 550 0 0 1 -50 -1000"/><path d="m1250-999.99994a750 749.99994 0 0 1 -375.00001 649.51901 750 749.99994 0 0 1 -750.00001 -.00002A750 749.99994 0 0 1 -250 -999.99997"/><path d="m1450-999.99994a950 949.99994 0 0 1 -475.00001 822.72409 950 949.99994 0 0 1 -950.00001 -.00002A950 949.99994 0 0 1 -450 -999.99998"/><path d="M1650-999.99994A1150 1150 0 0 1 1075 -4.070716 1150 1150 0 0 1 -75.00003 -4.070742 1150 1150 0 0 1 -650 -999.99999"/></g></svg>